<?xml version="1.0" encoding="UTF-8"?>
<svg width="40px" height="40px" viewBox="0 0 40 40" version="1.1" xmlns="http://www.w3.org/2000/svg" xmlns:xlink="http://www.w3.org/1999/xlink">
    <!-- Generator: Sketch 43.2 (39069) - http://www.bohemiancoding.com/sketch -->
    <title>Shape</title>
    <desc>Created with Sketch.</desc>
    <defs></defs>
    <g id="Page-1" stroke="none" stroke-width="1" fill="none" fill-rule="evenodd">
        <g id="Color" transform="translate(-317.000000, -614.000000)" fill-rule="nonzero" fill="#EAEAFF">
            <path d="M337,614 C325.969697,614 317,622.969697 317,634 C317,645.030303 325.969697,654 337,654 C348.030303,654 357,645.030303 357,634 C357,622.969697 348.030303,614 337,614 Z M347.30303,634.909091 L328.939394,634.909091 L337.909091,643.636364 C338.272727,644 338.333333,644.545455 338.030303,644.909091 C337.848485,645.151515 337.606061,645.212121 337.30303,645.212121 C337.060606,645.212121 336.818182,645.151515 336.69697,644.969697 L326.757576,635.333333 C326.030303,634.606061 326.030303,633.454545 326.757576,632.727273 L336.69697,623.090909 C337.060606,622.727273 337.606061,622.727273 337.969697,623.090909 C338.333333,623.454545 338.333333,624 337.969697,624.363636 L328.939394,633.090909 L347.30303,633.090909 C347.787879,633.090909 348.212121,633.515152 348.212121,634 C348.212121,634.484848 347.787879,634.909091 347.30303,634.909091 Z" id="Shape"></path>
        </g>
    </g>
</svg>